HIERARCHY
ROOT Hips
{
	OFFSET 0.000000 0.000000 0.000000
	CHANNELS 6 Xposition Yposition Zposition Xrotation Yrotation Zrotation
	JOINT LeftUpLeg_virtual
	{
		OFFSET 0.000000 0.000000 0.000000
		CHANNELS 3 Xrotation Yrotation Zrotation
		JOINT LeftUpLeg
		{
			OFFSET 13.026900 -6.336304 -1.092800
			CHANNELS 3 Xrotation Yrotation Zrotation
			JOINT LeftLeg
			{
				OFFSET 0.524474 -46.096886 9.782700
				CHANNELS 3 Xrotation Yrotation Zrotation
				JOINT LeftFoot
				{
					OFFSET -0.524474 -53.427422 -12.948200
					CHANNELS 3 Xrotation Yrotation Zrotation
					JOINT LeftToeBase
					{
						OFFSET 0.192200 -14.009700 16.364100
						CHANNELS 3 Xrotation Yrotation Zrotation
						JOINT LeftToe_End
						{
							OFFSET -1.784700 -0.561700 9.474800
							CHANNELS 3 Xrotation Yrotation Zrotation
							End Site
							{
								OFFSET 0 0 0
							}
						}
					}
				}
			}
		}
	}
	JOINT RightUpLeg_virtual
	{
		OFFSET 0.000000 0.000000 0.000000
		CHANNELS 3 Xrotation Yrotation Zrotation
		JOINT RightUpLeg
		{
			OFFSET -12.883000 -6.336304 -1.092800
			CHANNELS 3 Xrotation Yrotation Zrotation
			JOINT RightLeg
			{
				OFFSET -0.524587 -46.096825 9.782800
				CHANNELS 3 Xrotation Yrotation Zrotation
				JOINT RightFoot
				{
					OFFSET 0.524587 -53.427383 -12.948300
					CHANNELS 3 Xrotation Yrotation Zrotation
					JOINT RightToeBase
					{
						OFFSET -0.192200 -14.009700 16.364100
						CHANNELS 3 Xrotation Yrotation Zrotation
						JOINT RightToe_End
						{
							OFFSET 1.784700 -0.561700 9.474800
							CHANNELS 3 Xrotation Yrotation Zrotation
							End Site
							{
								OFFSET 0 0 0
							}
						}
					}
				}
			}
		}
	}
	JOINT Spine_virtual
	{
		OFFSET 0.000000 0.000000 0.000000
		CHANNELS 3 Xrotation Yrotation Zrotation
		JOINT Spine
		{
			OFFSET 0.072000 7.257294 -0.789700
			CHANNELS 3 Xrotation Yrotation Zrotation
			JOINT Spine1
			{
				OFFSET 0.000000 12.508769 -0.658067
				CHANNELS 3 Xrotation Yrotation Zrotation
				JOINT Spine1_split
				{
					OFFSET 0.000000 12.508769 -0.658067
					CHANNELS 3 Xrotation Yrotation Zrotation
					JOINT Spine2
					{
						OFFSET 0.000000 12.508769 -0.658067
						CHANNELS 3 Xrotation Yrotation Zrotation
						JOINT Neck_virtual
						{
							OFFSET 0.000000 0.000000 0.000000
							CHANNELS 3 Xrotation Yrotation Zrotation
							JOINT Neck
							{
								OFFSET 0.000000 14.033295 7.520400
								CHANNELS 3 Xrotation Yrotation Zrotation
								JOINT Head
								{
									OFFSET 0.000000 8.198502 5.703100
									CHANNELS 3 Xrotation Yrotation Zrotation
									JOINT HeadTop_End
									{
										OFFSET 0.000000 17.760803 13.332701
										CHANNELS 3 Xrotation Yrotation Zrotation
										End Site
										{
											OFFSET 0 0 0
										}
									}
								}
							}
						}
						JOINT LeftShoulder_virtual
						{
							OFFSET 0.000000 0.000000 0.000000
							CHANNELS 3 Xrotation Yrotation Zrotation
							JOINT LeftShoulder
							{
								OFFSET 6.292450 5.785301 -0.669000
								CHANNELS 3 Xrotation Yrotation Zrotation
								JOINT LeftShoulder_split
								{
									OFFSET 6.292450 5.785301 -0.669000
									CHANNELS 3 Xrotation Yrotation Zrotation
									JOINT LeftArm
									{
										OFFSET 13.907140 -6.093903 1.965100
										CHANNELS 3 Xrotation Yrotation Zrotation
										JOINT LeftForeArm
										{
											OFFSET 34.140198 0.000000 0.000000
											CHANNELS 3 Xrotation Yrotation Zrotation
											JOINT LeftHand
											{
												OFFSET 40.960209 0.000000 0.000000
												CHANNELS 3 Xrotation Yrotation Zrotation
												End Site
												{
													OFFSET 0 0 0
												}
											}
										}
									}
								}
							}
						}
						JOINT RightShoulder_virtual
						{
							OFFSET 0.000000 0.000000 0.000000
							CHANNELS 3 Xrotation Yrotation Zrotation
							JOINT RightShoulder
							{
								OFFSET -6.292450 5.785301 -0.669000
								CHANNELS 3 Xrotation Yrotation Zrotation
								JOINT RightShoulder_split
								{
									OFFSET -6.292450 5.785301 -0.669000
									CHANNELS 3 Xrotation Yrotation Zrotation
									JOINT RightArm
									{
										OFFSET -13.907140 -6.093903 1.965100
										CHANNELS 3 Xrotation Yrotation Zrotation
										JOINT RightForeArm
										{
											OFFSET -34.140198 0.000000 0.000000
											CHANNELS 3 Xrotation Yrotation Zrotation
											JOINT RightHand
											{
												OFFSET -40.960209 0.000000 0.000000
												CHANNELS 3 Xrotation Yrotation Zrotation
												End Site
												{
													OFFSET 0 0 0
												}
											}
										}
									}
								}
							}
						}
					}
				}
			}
		}
	}
}
MOTION
Frames: 4
Frame Time: 0.03333333
1.202717 108.037346 2.251095 0.000000 0.000000 0.000000 26.287549 11.764740 1.754667 -45.352138 8.020199 16.078554 41.085968 9.533721 -5.424923 9.174927 21.546318 -18.394837 -8.010309 0.246230 -3.959205 0.000000 0.000000 0.000000 26.287549 11.764740 1.754667 -65.073022 -12.024067 -11.279102 35.957510 3.701138 -4.579079 2.464439 -9.695087 0.037463 -1.639035 0.005054 -0.307723 0.000000 0.000000 0.000000 26.287549 11.764740 1.754667 11.264758 -1.363405 1.053354 9.276076 2.486271 -1.078450 0.000000 0.000000 0.000000 0.000000 0.000000 0.000000 9.399722 1.253084 -3.812951 -9.096158 7.493532 -0.883477 -27.171316 1.769075 -6.727668 0.000000 0.000000 0.000000 9.399722 1.253084 -3.812951 0.803793 0.857152 -9.303931 0.000000 0.000000 0.000000 -29.535883 -3.682381 -62.075109 -0.000000 -41.672780 -0.000015 0.000000 0.000000 0.000000 9.399722 1.253084 -3.812951 5.720874 24.427852 1.421182 0.000000 0.000000 0.000000 -24.663789 -14.041416 65.136413 -0.000002 37.034283 0.000002 0.000000 0.000000 0.000000 
1.182162 111.040741 6.107777 0.000000 0.000000 0.000000 26.029463 12.583934 2.231444 -45.780098 8.855624 13.525445 35.827829 9.402971 -5.339838 10.354574 24.454060 -19.945735 -2.998579 -0.000016 -0.000003 0.000000 0.000000 0.000000 26.029463 12.583934 2.231444 -59.713953 -12.549971 -11.404776 31.812603 3.888194 -4.563832 1.472543 -10.210622 0.505074 -1.641688 0.004806 -0.292046 0.000000 0.000000 0.000000 26.029463 12.583934 2.231444 10.469629 -0.230498 1.133932 9.248261 2.964297 -0.996379 0.000000 0.000000 0.000000 0.000000 0.000000 0.000000 9.387526 1.751384 -3.651128 -9.472129 7.196017 -1.232979 -26.658554 -0.579033 -7.669380 0.000000 0.000000 0.000000 9.387526 1.751384 -3.651128 0.864098 0.779453 -9.200424 0.000000 0.000000 0.000000 -27.914304 0.938281 -60.038497 0.000005 -42.148845 -0.000005 0.000000 0.000000 0.000000 9.387526 1.751384 -3.651128 5.738782 24.365534 1.303489 0.000000 0.000000 0.000000 -24.740735 -16.700542 63.463242 -0.000006 37.406521 -0.000000 0.000000 0.000000 0.000000 
1.438675 113.442139 10.461338 0.000000 0.000000 0.000000 25.328954 14.199644 2.577323 -45.798133 9.340938 11.170366 30.580526 7.968590 -5.294123 13.057655 27.518265 -21.240785 -2.746504 -0.000036 0.000002 0.000000 0.000000 0.000000 25.328954 14.199644 2.577323 -54.414034 -13.614823 -12.183906 28.739134 4.410309 -4.529020 -0.197460 -11.258314 1.025970 -1.643997 0.004485 -0.271832 0.000000 0.000000 0.000000 25.328954 14.199644 2.577323 9.971180 1.246545 1.435466 9.162368 3.405353 -0.814593 0.000000 0.000000 0.000000 0.000000 0.000000 0.000000 9.299436 2.332560 -3.026502 -9.786412 6.437162 -1.739177 -26.535422 -3.323929 -8.836770 0.000000 0.000000 0.000000 9.299436 2.332560 -3.026502 1.019373 0.567889 -8.904578 0.000000 0.000000 0.000000 -24.750299 5.026875 -57.223093 0.000008 -42.830388 -0.000000 0.000000 0.000000 0.000000 9.299436 2.332560 -3.026502 5.775026 24.190513 0.981710 0.000000 0.000000 0.000000 -25.353326 -19.271678 60.878125 0.000006 38.352755 0.000008 0.000000 0.000000 0.000000 
1.731928 114.603874 14.749168 0.000000 0.000000 0.000000 24.161519 15.882365 2.724241 -46.073533 9.378530 9.364361 27.173592 7.260237 -5.340505 13.639422 27.617889 -20.912789 -3.067089 -0.000006 -0.000002 0.000000 0.000000 0.000000 24.161519 15.882365 2.724241 -50.138144 -15.147015 -13.014151 27.915951 5.211306 -4.475574 -2.712826 -12.444809 1.272175 -1.641074 0.004505 -0.273739 0.000000 0.000000 0.000000 24.161519 15.882365 2.724241 10.369710 2.820166 1.863419 9.029344 3.849001 -0.485217 0.000000 0.000000 0.000000 0.000000 0.000000 0.000000 9.145111 3.011637 -2.019325 -9.866923 5.570469 -2.271291 -27.179073 -5.832550 -10.187403 0.000000 0.000000 0.000000 9.145111 3.011637 -2.019325 1.232424 0.255218 -8.438167 0.000000 0.000000 0.000000 -20.756019 7.703443 -54.556232 -0.000001 -43.647419 -0.000003 0.000000 0.000000 0.000000 9.145111 3.011637 -2.019325 5.802502 23.921430 0.502435 0.000000 0.000000 0.000000 -27.032830 -21.123822 57.266044 0.000009 40.313074 0.000004 0.000000 0.000000 0.000000 
